<svg width="57" height="52" viewBox="0 0 57 52" fill="none" xmlns="http://www.w3.org/2000/svg">
<g clip-path="url(#clip0_209_10)">
<mask id="path-1-outside-1_209_10" maskUnits="userSpaceOnUse" x="4" y="-1" width="45" height="50" fill="black">
<rect fill="white" x="4" y="-1" width="45" height="50"/>
<path d="M27.696 3.896C24.4 3.736 21.232 3.992 18.192 4.664C15.152 5.336 12.144 6.248 9.168 7.4C8.4 7.688 7.808 7.656 7.392 7.304C7.008 6.952 6.816 6.6 6.816 6.248C7.04 5.64 7.44 5.144 8.016 4.76C14.576 1.56 21.136 0.375998 27.696 1.208C28.016 1.304 28.272 1.544 28.464 1.928C28.688 2.28 28.768 2.584 28.704 2.84C28.64 3.16 28.544 3.432 28.416 3.656C28.288 3.848 28.048 3.928 27.696 3.896ZM20.88 20.648C20.88 21 20.752 21.32 20.496 21.608C20.272 21.864 19.984 22.024 19.632 22.088C18.992 22.184 18.576 22.072 18.384 21.752C18.192 21.432 18.08 21.064 18.048 20.648C18.016 18.408 17.968 16.184 17.904 13.976C17.872 11.736 17.776 9.496 17.616 7.256C17.616 7.128 17.6 6.984 17.568 6.824C17.536 6.632 17.536 6.456 17.568 6.296C17.6 6.104 17.664 5.944 17.76 5.816C17.888 5.688 18.08 5.592 18.336 5.528C19.072 5.4 19.6 5.528 19.92 5.912C20.24 6.264 20.4 6.616 20.4 6.968C20.656 9.272 20.816 11.56 20.88 13.832C20.944 16.104 20.944 18.376 20.88 20.648ZM42.6799 6.248C43.6399 6.6 44.4399 7.128 45.0799 7.832C45.7519 8.536 46.2639 9.336 46.6159 10.232C46.9679 11.096 47.1599 11.992 47.1919 12.92C47.2559 13.848 47.1599 14.712 46.9039 15.512C46.5519 16.408 46.1039 17.288 45.5599 18.152C45.0159 19.016 44.3919 19.784 43.6879 20.456C42.9839 21.128 42.1839 21.672 41.2879 22.088C40.3919 22.504 39.3999 22.712 38.3119 22.712C36.9999 22.712 35.8959 22.408 34.9999 21.8C34.1039 21.192 33.3999 20.408 32.8879 19.448C32.3759 18.488 32.0399 17.4 31.8799 16.184C31.7519 14.968 31.7839 13.752 31.9759 12.536C32.1039 11.64 32.3119 10.776 32.5999 9.944C32.9199 9.08 33.3199 8.328 33.7999 7.688C34.2799 7.016 34.8239 6.472 35.4319 6.056C36.0719 5.64 36.7919 5.432 37.5919 5.432C38.0399 5.432 38.5999 5.528 39.2719 5.72C39.9439 5.88 40.5679 6.12 41.1439 6.44C41.5599 6.056 42.0719 5.992 42.6799 6.248ZM40.8559 9.752C40.5039 9.528 40.0879 9.24 39.6079 8.888C39.1599 8.504 38.7599 8.312 38.4079 8.312C38.0239 8.312 37.6399 8.488 37.2559 8.84C36.9039 9.192 36.5839 9.608 36.2959 10.088C36.0399 10.536 35.8159 11 35.6239 11.48C35.4319 11.96 35.3039 12.344 35.2399 12.632C35.1439 13.112 35.0799 13.688 35.0479 14.36C35.0159 15.032 35.0639 15.704 35.1919 16.376C35.3199 17.016 35.5599 17.608 35.9119 18.152C36.2959 18.664 36.8559 19.032 37.5919 19.256C38.0399 19.384 38.5679 19.384 39.1759 19.256C39.7839 19.096 40.3759 18.824 40.9519 18.44C41.5599 18.056 42.1199 17.544 42.6319 16.904C43.1759 16.264 43.5919 15.528 43.8799 14.696C44.1999 13.768 44.1999 12.808 43.8799 11.816C43.5919 10.792 42.9839 10.056 42.0559 9.608C41.8319 9.768 41.6079 9.848 41.3839 9.848C41.1599 9.848 40.9839 9.816 40.8559 9.752ZM8.16 29.04C7.68 29.232 7.264 29.248 6.912 29.088C6.56 28.928 6.304 28.72 6.144 28.464C5.92 28.144 5.856 27.808 5.952 27.456C6.048 27.104 6.32 26.8 6.768 26.544C7.504 26.128 8.432 25.792 9.552 25.536C10.672 25.248 11.872 25.168 13.152 25.296C14.432 25.424 15.6 25.776 16.656 26.352C17.744 26.896 18.656 27.6 19.392 28.464C20.16 29.328 20.736 30.32 21.12 31.44C21.536 32.528 21.728 33.68 21.696 34.896C21.632 36.176 21.376 37.456 20.928 38.736C20.512 40.016 19.92 41.216 19.152 42.336C18.416 43.456 17.52 44.48 16.464 45.408C15.44 46.304 14.304 47.008 13.056 47.52C12.192 47.744 11.536 47.776 11.088 47.616C10.64 47.456 10.336 47.264 10.176 47.04C10.112 46.88 10.08 46.672 10.08 46.416C10.112 46.128 10.288 45.84 10.608 45.552C10.224 42.448 9.984 39.456 9.888 36.576C9.824 33.664 9.792 31.008 9.792 28.608C9.248 28.704 8.704 28.848 8.16 29.04ZM13.392 28.416C13.2 28.384 12.992 28.368 12.768 28.368C12.576 28.336 12.384 28.32 12.192 28.32C12.384 28.576 12.544 28.896 12.672 29.28C12.8 29.632 12.864 29.984 12.864 30.336C12.864 32.288 12.88 34.384 12.912 36.624C12.976 38.864 13.136 41.28 13.392 43.872C14.8 42.848 16 41.568 16.992 40.032C18.016 38.464 18.56 36.816 18.624 35.088C18.656 33.488 18.256 32.08 17.424 30.864C16.592 29.616 15.248 28.8 13.392 28.416ZM36.3986 31.248C37.3586 31.6 38.1586 32.128 38.7986 32.832C39.4706 33.536 39.9826 34.336 40.3346 35.232C40.6866 36.096 40.8786 36.992 40.9106 37.92C40.9746 38.848 40.8786 39.712 40.6226 40.512C40.2706 41.408 39.8226 42.288 39.2786 43.152C38.7346 44.016 38.1106 44.784 37.4066 45.456C36.7026 46.128 35.9026 46.672 35.0066 47.088C34.1106 47.504 33.1186 47.712 32.0306 47.712C30.7186 47.712 29.6146 47.408 28.7186 46.8C27.8226 46.192 27.1186 45.408 26.6066 44.448C26.0946 43.488 25.7586 42.4 25.5986 41.184C25.4706 39.968 25.5026 38.752 25.6946 37.536C25.8226 36.64 26.0306 35.776 26.3186 34.944C26.6386 34.08 27.0386 33.328 27.5186 32.688C27.9986 32.016 28.5426 31.472 29.1506 31.056C29.7906 30.64 30.5106 30.432 31.3106 30.432C31.7586 30.432 32.3186 30.528 32.9906 30.72C33.6626 30.88 34.2866 31.12 34.8626 31.44C35.2786 31.056 35.7906 30.992 36.3986 31.248ZM34.5746 34.752C34.2226 34.528 33.8066 34.24 33.3266 33.888C32.8786 33.504 32.4786 33.312 32.1266 33.312C31.7426 33.312 31.3586 33.488 30.9746 33.84C30.6226 34.192 30.3026 34.608 30.0146 35.088C29.7586 35.536 29.5346 36 29.3426 36.48C29.1506 36.96 29.0226 37.344 28.9586 37.632C28.8626 38.112 28.7986 38.688 28.7666 39.36C28.7346 40.032 28.7826 40.704 28.9106 41.376C29.0386 42.016 29.2786 42.608 29.6306 43.152C30.0146 43.664 30.5746 44.032 31.3106 44.256C31.7586 44.384 32.2866 44.384 32.8946 44.256C33.5026 44.096 34.0946 43.824 34.6706 43.44C35.2786 43.056 35.8386 42.544 36.3506 41.904C36.8946 41.264 37.3106 40.528 37.5986 39.696C37.9186 38.768 37.9186 37.808 37.5986 36.816C37.3106 35.792 36.7026 35.056 35.7746 34.608C35.5506 34.768 35.3266 34.848 35.1026 34.848C34.8786 34.848 34.7026 34.816 34.5746 34.752Z"/>
</mask>
<path d="M27.696 3.896C24.4 3.736 21.232 3.992 18.192 4.664C15.152 5.336 12.144 6.248 9.168 7.4C8.4 7.688 7.808 7.656 7.392 7.304C7.008 6.952 6.816 6.6 6.816 6.248C7.04 5.64 7.44 5.144 8.016 4.76C14.576 1.56 21.136 0.375998 27.696 1.208C28.016 1.304 28.272 1.544 28.464 1.928C28.688 2.28 28.768 2.584 28.704 2.84C28.64 3.16 28.544 3.432 28.416 3.656C28.288 3.848 28.048 3.928 27.696 3.896ZM20.88 20.648C20.88 21 20.752 21.32 20.496 21.608C20.272 21.864 19.984 22.024 19.632 22.088C18.992 22.184 18.576 22.072 18.384 21.752C18.192 21.432 18.08 21.064 18.048 20.648C18.016 18.408 17.968 16.184 17.904 13.976C17.872 11.736 17.776 9.496 17.616 7.256C17.616 7.128 17.6 6.984 17.568 6.824C17.536 6.632 17.536 6.456 17.568 6.296C17.6 6.104 17.664 5.944 17.76 5.816C17.888 5.688 18.08 5.592 18.336 5.528C19.072 5.4 19.6 5.528 19.92 5.912C20.24 6.264 20.4 6.616 20.4 6.968C20.656 9.272 20.816 11.56 20.88 13.832C20.944 16.104 20.944 18.376 20.88 20.648ZM42.6799 6.248C43.6399 6.6 44.4399 7.128 45.0799 7.832C45.7519 8.536 46.2639 9.336 46.6159 10.232C46.9679 11.096 47.1599 11.992 47.1919 12.92C47.2559 13.848 47.1599 14.712 46.9039 15.512C46.5519 16.408 46.1039 17.288 45.5599 18.152C45.0159 19.016 44.3919 19.784 43.6879 20.456C42.9839 21.128 42.1839 21.672 41.2879 22.088C40.3919 22.504 39.3999 22.712 38.3119 22.712C36.9999 22.712 35.8959 22.408 34.9999 21.8C34.1039 21.192 33.3999 20.408 32.8879 19.448C32.3759 18.488 32.0399 17.4 31.8799 16.184C31.7519 14.968 31.7839 13.752 31.9759 12.536C32.1039 11.64 32.3119 10.776 32.5999 9.944C32.9199 9.08 33.3199 8.328 33.7999 7.688C34.2799 7.016 34.8239 6.472 35.4319 6.056C36.0719 5.64 36.7919 5.432 37.5919 5.432C38.0399 5.432 38.5999 5.528 39.2719 5.72C39.9439 5.88 40.5679 6.12 41.1439 6.44C41.5599 6.056 42.0719 5.992 42.6799 6.248ZM40.8559 9.752C40.5039 9.528 40.0879 9.24 39.6079 8.888C39.1599 8.504 38.7599 8.312 38.4079 8.312C38.0239 8.312 37.6399 8.488 37.2559 8.84C36.9039 9.192 36.5839 9.608 36.2959 10.088C36.0399 10.536 35.8159 11 35.6239 11.48C35.4319 11.96 35.3039 12.344 35.2399 12.632C35.1439 13.112 35.0799 13.688 35.0479 14.36C35.0159 15.032 35.0639 15.704 35.1919 16.376C35.3199 17.016 35.5599 17.608 35.9119 18.152C36.2959 18.664 36.8559 19.032 37.5919 19.256C38.0399 19.384 38.5679 19.384 39.1759 19.256C39.7839 19.096 40.3759 18.824 40.9519 18.44C41.5599 18.056 42.1199 17.544 42.6319 16.904C43.1759 16.264 43.5919 15.528 43.8799 14.696C44.1999 13.768 44.1999 12.808 43.8799 11.816C43.5919 10.792 42.9839 10.056 42.0559 9.608C41.8319 9.768 41.6079 9.848 41.3839 9.848C41.1599 9.848 40.9839 9.816 40.8559 9.752ZM8.16 29.04C7.68 29.232 7.264 29.248 6.912 29.088C6.56 28.928 6.304 28.72 6.144 28.464C5.92 28.144 5.856 27.808 5.952 27.456C6.048 27.104 6.32 26.8 6.768 26.544C7.504 26.128 8.432 25.792 9.552 25.536C10.672 25.248 11.872 25.168 13.152 25.296C14.432 25.424 15.6 25.776 16.656 26.352C17.744 26.896 18.656 27.6 19.392 28.464C20.16 29.328 20.736 30.32 21.12 31.44C21.536 32.528 21.728 33.68 21.696 34.896C21.632 36.176 21.376 37.456 20.928 38.736C20.512 40.016 19.92 41.216 19.152 42.336C18.416 43.456 17.52 44.48 16.464 45.408C15.44 46.304 14.304 47.008 13.056 47.52C12.192 47.744 11.536 47.776 11.088 47.616C10.64 47.456 10.336 47.264 10.176 47.04C10.112 46.88 10.08 46.672 10.08 46.416C10.112 46.128 10.288 45.84 10.608 45.552C10.224 42.448 9.984 39.456 9.888 36.576C9.824 33.664 9.792 31.008 9.792 28.608C9.248 28.704 8.704 28.848 8.16 29.04ZM13.392 28.416C13.2 28.384 12.992 28.368 12.768 28.368C12.576 28.336 12.384 28.32 12.192 28.32C12.384 28.576 12.544 28.896 12.672 29.28C12.8 29.632 12.864 29.984 12.864 30.336C12.864 32.288 12.88 34.384 12.912 36.624C12.976 38.864 13.136 41.28 13.392 43.872C14.8 42.848 16 41.568 16.992 40.032C18.016 38.464 18.56 36.816 18.624 35.088C18.656 33.488 18.256 32.08 17.424 30.864C16.592 29.616 15.248 28.8 13.392 28.416ZM36.3986 31.248C37.3586 31.6 38.1586 32.128 38.7986 32.832C39.4706 33.536 39.9826 34.336 40.3346 35.232C40.6866 36.096 40.8786 36.992 40.9106 37.92C40.9746 38.848 40.8786 39.712 40.6226 40.512C40.2706 41.408 39.8226 42.288 39.2786 43.152C38.7346 44.016 38.1106 44.784 37.4066 45.456C36.7026 46.128 35.9026 46.672 35.0066 47.088C34.1106 47.504 33.1186 47.712 32.0306 47.712C30.7186 47.712 29.6146 47.408 28.7186 46.8C27.8226 46.192 27.1186 45.408 26.6066 44.448C26.0946 43.488 25.7586 42.4 25.5986 41.184C25.4706 39.968 25.5026 38.752 25.6946 37.536C25.8226 36.64 26.0306 35.776 26.3186 34.944C26.6386 34.08 27.0386 33.328 27.5186 32.688C27.9986 32.016 28.5426 31.472 29.1506 31.056C29.7906 30.64 30.5106 30.432 31.3106 30.432C31.7586 30.432 32.3186 30.528 32.9906 30.72C33.6626 30.88 34.2866 31.12 34.8626 31.44C35.2786 31.056 35.7906 30.992 36.3986 31.248ZM34.5746 34.752C34.2226 34.528 33.8066 34.24 33.3266 33.888C32.8786 33.504 32.4786 33.312 32.1266 33.312C31.7426 33.312 31.3586 33.488 30.9746 33.84C30.6226 34.192 30.3026 34.608 30.0146 35.088C29.7586 35.536 29.5346 36 29.3426 36.48C29.1506 36.96 29.0226 37.344 28.9586 37.632C28.8626 38.112 28.7986 38.688 28.7666 39.36C28.7346 40.032 28.7826 40.704 28.9106 41.376C29.0386 42.016 29.2786 42.608 29.6306 43.152C30.0146 43.664 30.5746 44.032 31.3106 44.256C31.7586 44.384 32.2866 44.384 32.8946 44.256C33.5026 44.096 34.0946 43.824 34.6706 43.44C35.2786 43.056 35.8386 42.544 36.3506 41.904C36.8946 41.264 37.3106 40.528 37.5986 39.696C37.9186 38.768 37.9186 37.808 37.5986 36.816C37.3106 35.792 36.7026 35.056 35.7746 34.608C35.5506 34.768 35.3266 34.848 35.1026 34.848C34.8786 34.848 34.7026 34.816 34.5746 34.752Z" fill="#C80000"/>
<path d="M27.696 3.896L27.7865 2.90011L27.7655 2.8982L27.7445 2.89718L27.696 3.896ZM18.192 4.664L17.9762 3.68757L17.9762 3.68757L18.192 4.664ZM9.168 7.4L9.51914 8.33638L9.52899 8.33257L9.168 7.4ZM7.392 7.304L6.71628 8.04115L6.73091 8.05456L6.74606 8.06739L7.392 7.304ZM6.816 6.248L5.87766 5.90229L5.816 6.06965V6.248H6.816ZM8.016 4.76L7.57758 3.86123L7.5172 3.89068L7.4613 3.92795L8.016 4.76ZM27.696 1.208L27.9834 0.250172L27.904 0.226367L27.8218 0.215944L27.696 1.208ZM28.464 1.928L27.5696 2.37521L27.5926 2.42135L27.6203 2.46488L28.464 1.928ZM28.704 2.84L27.7339 2.59746L27.7281 2.62055L27.7234 2.64388L28.704 2.84ZM28.416 3.656L29.2481 4.2107L29.2672 4.18204L29.2842 4.15214L28.416 3.656ZM20.88 20.648L19.8804 20.6198L19.88 20.6339V20.648H20.88ZM20.496 21.608L19.7486 20.9436L19.7434 20.9495L20.496 21.608ZM19.632 22.088L19.7803 23.0769L19.7957 23.0746L19.8109 23.0719L19.632 22.088ZM18.384 21.752L19.2415 21.2375L19.2415 21.2375L18.384 21.752ZM18.048 20.648L17.0481 20.6623L17.0485 20.6935L17.0509 20.7247L18.048 20.648ZM17.904 13.976L16.9041 13.9903L16.9042 13.9976L16.9044 14.005L17.904 13.976ZM17.616 7.256H16.616V7.29167L16.6185 7.32725L17.616 7.256ZM17.568 6.824L16.5816 6.9884L16.5843 7.0043L16.5874 7.02012L17.568 6.824ZM17.568 6.296L18.5486 6.49212L18.5517 6.4763L18.5544 6.4604L17.568 6.296ZM17.76 5.816L17.0529 5.10889L17.0026 5.15914L16.96 5.216L17.76 5.816ZM18.336 5.528L18.1647 4.54279L18.1288 4.54903L18.0935 4.55786L18.336 5.528ZM19.92 5.912L19.1518 6.55218L19.1656 6.56873L19.1801 6.58467L19.92 5.912ZM20.4 6.968H19.4V7.02338L19.4061 7.07843L20.4 6.968ZM20.88 13.832L19.8804 13.8602L19.8804 13.8602L20.88 13.832ZM27.696 3.896L27.7445 2.89718C24.3651 2.73313 21.1079 2.99529 17.9762 3.68757L18.192 4.664L18.4078 5.64043C21.3561 4.98871 24.4349 4.73887 27.6475 4.89482L27.696 3.896ZM18.192 4.664L17.9762 3.68757C14.8855 4.37076 11.829 5.29761 8.80701 6.46743L9.168 7.4L9.52899 8.33257C12.459 7.19838 15.4185 6.30123 18.4078 5.64043L18.192 4.664ZM9.168 7.4L8.81688 6.46367C8.20092 6.69465 8.05274 6.55314 8.03794 6.54061L7.392 7.304L6.74606 8.06739C7.56326 8.75886 8.59908 8.68134 9.51912 8.33633L9.168 7.4ZM7.392 7.304L8.06772 6.56685C7.79048 6.3127 7.816 6.20807 7.816 6.248H6.816H5.816C5.816 6.99192 6.22552 7.59129 6.71628 8.04115L7.392 7.304ZM6.816 6.248L7.75434 6.5937C7.90003 6.19828 8.15806 5.86714 8.5707 5.59205L8.016 4.76L7.4613 3.92795C6.72194 4.42085 6.17997 5.08172 5.87766 5.90229L6.816 6.248ZM8.016 4.76L8.45442 5.65877C14.8583 2.53493 21.2232 1.39506 27.5702 2.20005L27.696 1.208L27.8218 0.215944C21.0489 -0.643065 14.2937 0.585072 7.57758 3.86123L8.016 4.76ZM27.696 1.208L27.4087 2.16582C27.4131 2.16716 27.423 2.16979 27.4441 2.18953C27.4689 2.2128 27.515 2.26616 27.5696 2.37521L28.464 1.928L29.3584 1.48079C29.0803 0.924446 28.6377 0.446467 27.9834 0.250172L27.696 1.208ZM28.464 1.928L27.6203 2.46488C27.6939 2.58041 27.7182 2.64903 27.7249 2.67449C27.7303 2.69482 27.7179 2.66135 27.7339 2.59746L28.704 2.84L29.6741 3.08253C29.8348 2.44003 29.5955 1.84343 29.3077 1.39112L28.464 1.928ZM28.704 2.84L27.7234 2.64388C27.6752 2.88509 27.6105 3.05014 27.5478 3.15986L28.416 3.656L29.2842 4.15214C29.4775 3.81386 29.6048 3.4349 29.6846 3.03612L28.704 2.84ZM28.416 3.656L27.5839 3.1013C27.6156 3.05385 27.6567 3.0102 27.7046 2.97482C27.7516 2.9401 27.7945 2.92108 27.8238 2.91132C27.8757 2.89401 27.876 2.90824 27.7865 2.90011L27.696 3.896L27.6055 4.89189C28.111 4.93785 28.8211 4.85111 29.2481 4.2107L28.416 3.656ZM20.88 20.648H19.88C19.88 20.7311 19.8585 20.82 19.7486 20.9436L20.496 21.608L21.2434 22.2724C21.6455 21.82 21.88 21.2689 21.88 20.648H20.88ZM20.496 21.608L19.7434 20.9495C19.6764 21.026 19.595 21.0783 19.4531 21.1041L19.632 22.088L19.8109 23.0719C20.373 22.9697 20.8676 22.702 21.2486 22.2665L20.496 21.608ZM19.632 22.088L19.4837 21.0991C19.3662 21.1167 19.2759 21.1221 19.2091 21.1211C19.142 21.1201 19.1085 21.1127 19.1 21.1104C19.093 21.1085 19.1148 21.1134 19.1492 21.1378C19.1858 21.1638 19.2185 21.1992 19.2415 21.2375L18.384 21.752L17.5265 22.2665C18.0533 23.1445 19.0578 23.1853 19.7803 23.0769L19.632 22.088ZM18.384 21.752L19.2415 21.2375C19.1384 21.0656 19.0666 20.851 19.0451 20.5713L18.048 20.648L17.0509 20.7247C17.0934 21.277 17.2456 21.7984 17.5265 22.2665L18.384 21.752ZM18.048 20.648L19.0479 20.6337C19.0158 18.3889 18.9677 16.16 18.9036 13.947L17.904 13.976L16.9044 14.005C16.9683 16.208 17.0162 18.4271 17.0481 20.6623L18.048 20.648ZM17.904 13.976L18.9039 13.9617C18.8716 11.7027 18.7748 9.44367 18.6135 7.18475L17.616 7.256L16.6185 7.32725C16.7772 9.54833 16.8724 11.7693 16.9041 13.9903L17.904 13.976ZM17.616 7.256H18.616C18.616 7.04709 18.5902 6.83579 18.5486 6.62788L17.568 6.824L16.5874 7.02012C16.6098 7.1322 16.616 7.20891 16.616 7.256H17.616ZM17.568 6.824L18.5544 6.6596C18.5386 6.56463 18.5444 6.5128 18.5486 6.49212L17.568 6.296L16.5874 6.09988C16.5276 6.3992 16.5334 6.69937 16.5816 6.9884L17.568 6.824ZM17.568 6.296L18.5544 6.4604C18.5601 6.42631 18.5663 6.40873 18.5685 6.40339C18.5704 6.39866 18.5686 6.40459 18.56 6.416L17.76 5.816L16.96 5.216C16.7492 5.49704 16.6343 5.81538 16.5816 6.1316L17.568 6.296ZM17.76 5.816L18.4671 6.52311C18.4425 6.54772 18.43 6.55105 18.4472 6.54243C18.4651 6.53348 18.5059 6.51631 18.5785 6.49814L18.336 5.528L18.0935 4.55786C17.7372 4.64692 17.3548 4.80702 17.0529 5.10889L17.76 5.816ZM18.336 5.528L18.5073 6.51321C18.7877 6.46445 18.9577 6.47786 19.0484 6.49985C19.123 6.51794 19.1413 6.53955 19.1518 6.55218L19.92 5.912L20.6882 5.27181C20.0381 4.49168 19.0632 4.38652 18.1647 4.54279L18.336 5.528ZM19.92 5.912L19.1801 6.58467C19.3923 6.81817 19.4 6.94107 19.4 6.968H20.4H21.4C21.4 6.29093 21.0877 5.70982 20.6599 5.23933L19.92 5.912ZM20.4 6.968L19.4061 7.07843C19.6591 9.35564 19.8172 11.6162 19.8804 13.8602L20.88 13.832L21.8796 13.8038C21.8148 11.5038 21.6529 9.18836 21.3939 6.85757L20.4 6.968ZM20.88 13.832L19.8804 13.8602C19.9439 16.1134 19.9439 18.3666 19.8804 20.6198L20.88 20.648L21.8796 20.6762C21.9441 18.3854 21.9441 16.0946 21.8796 13.8038L20.88 13.832ZM42.6799 6.248L42.2918 7.16963L42.3135 7.17877L42.3356 7.18687L42.6799 6.248ZM45.0799 7.832L44.3399 8.50467L44.3481 8.51367L44.3565 8.52248L45.0799 7.832ZM46.6159 10.232L45.6851 10.5977L45.6898 10.6093L46.6159 10.232ZM47.1919 12.92L46.1925 12.9545L46.1931 12.9716L46.1942 12.9888L47.1919 12.92ZM46.9039 15.512L47.8346 15.8777L47.8464 15.8476L47.8563 15.8168L46.9039 15.512ZM45.5599 18.152L46.4061 18.6848L46.4061 18.6848L45.5599 18.152ZM43.6879 20.456L44.3784 21.1794L44.3784 21.1794L43.6879 20.456ZM34.9999 21.8L34.4384 22.6275L34.4384 22.6275L34.9999 21.8ZM32.8879 19.448L32.0055 19.9186L32.0055 19.9186L32.8879 19.448ZM31.8799 16.184L30.8854 16.2887L30.8867 16.3016L30.8884 16.3145L31.8799 16.184ZM31.9759 12.536L32.9636 12.692L32.9648 12.6847L32.9658 12.6774L31.9759 12.536ZM32.5999 9.944L31.6621 9.59669L31.6584 9.60675L31.6549 9.61689L32.5999 9.944ZM33.7999 7.688L34.5999 8.288L34.6069 8.2787L34.6136 8.26924L33.7999 7.688ZM35.4319 6.056L34.8869 5.21756L34.877 5.22401L34.8672 5.23069L35.4319 6.056ZM39.2719 5.72L38.9972 6.68152L39.0186 6.68764L39.0403 6.69281L39.2719 5.72ZM41.1439 6.44L40.6582 7.31416L41.2906 7.66547L41.8222 7.1748L41.1439 6.44ZM40.8559 9.752L40.319 10.5957L40.3625 10.6234L40.4087 10.6464L40.8559 9.752ZM39.6079 8.888L38.9571 9.64726L38.9859 9.67196L39.0165 9.6944L39.6079 8.888ZM37.2559 8.84L36.5802 8.10285L36.5641 8.11753L36.5488 8.13289L37.2559 8.84ZM36.2959 10.088L35.4384 9.5735L35.4329 9.58262L35.4276 9.59186L36.2959 10.088ZM35.6239 11.48L36.5524 11.8514L36.5524 11.8514L35.6239 11.48ZM35.2399 12.632L34.2637 12.4151L34.2614 12.4255L34.2593 12.4359L35.2399 12.632ZM35.0479 14.36L34.049 14.3124L34.049 14.3124L35.0479 14.36ZM35.1919 16.376L34.2095 16.5631L34.2113 16.5721L35.1919 16.376ZM35.9119 18.152L35.0723 18.6953L35.0911 18.7243L35.1119 18.752L35.9119 18.152ZM37.5919 19.256L37.3007 20.2127L37.3089 20.2152L37.3172 20.2175L37.5919 19.256ZM39.1759 19.256L39.3819 20.2345L39.4063 20.2294L39.4304 20.2231L39.1759 19.256ZM40.9519 18.44L40.4179 17.5945L40.4074 17.6011L40.3972 17.6079L40.9519 18.44ZM42.6319 16.904L41.8699 16.2564L41.8603 16.2677L41.851 16.2793L42.6319 16.904ZM43.8799 14.696L44.8249 15.0231L44.8252 15.022L43.8799 14.696ZM43.8799 11.816L42.9172 12.0867L42.9224 12.105L42.9282 12.123L43.8799 11.816ZM42.0559 9.608L42.4906 8.70745L41.9569 8.44979L41.4746 8.79427L42.0559 9.608ZM42.6799 6.248L42.3356 7.18687C43.1558 7.4876 43.8164 7.92884 44.3399 8.50467L45.0799 7.832L45.8198 7.15933C45.0633 6.32716 44.124 5.71239 43.0241 5.30912L42.6799 6.248ZM45.0799 7.832L44.3565 8.52248C44.94 9.13373 45.3811 9.8237 45.6851 10.5977L46.6159 10.232L47.5466 9.86635C47.1467 8.84829 46.5638 7.93827 45.8032 7.14152L45.0799 7.832ZM46.6159 10.232L45.6898 10.6093C45.9976 11.3648 46.1645 12.1447 46.1925 12.9545L47.1919 12.92L48.1913 12.8855C48.1552 11.8393 47.9382 10.8272 47.542 9.8547L46.6159 10.232ZM47.1919 12.92L46.1942 12.9888C46.2505 13.8041 46.1649 14.5401 45.9515 15.2072L46.9039 15.512L47.8563 15.8168C48.1548 14.8839 48.2613 13.8919 48.1895 12.8512L47.1919 12.92ZM46.9039 15.512L45.9731 15.1463C45.6453 15.9807 45.2263 16.805 44.7136 17.6192L45.5599 18.152L46.4061 18.6848C46.9814 17.771 47.4584 16.8353 47.8346 15.8777L46.9039 15.512ZM45.5599 18.152L44.7136 17.6192C44.2114 18.4169 43.639 19.1202 42.9974 19.7326L43.6879 20.456L44.3784 21.1794C45.1448 20.4478 45.8204 19.6151 46.4061 18.6848L45.5599 18.152ZM43.6879 20.456L42.9974 19.7326C42.3737 20.328 41.665 20.8104 40.8668 21.181L41.2879 22.088L41.709 22.995C42.7027 22.5336 43.594 21.928 44.3784 21.1794L43.6879 20.456ZM41.2879 22.088L40.8668 21.181C40.1156 21.5298 39.2693 21.712 38.3119 21.712V22.712V23.712C39.5304 23.712 40.6682 23.4782 41.709 22.995L41.2879 22.088ZM38.3119 22.712V21.712C37.1571 21.712 36.2594 21.4462 35.5614 20.9725L34.9999 21.8L34.4384 22.6275C35.5324 23.3698 36.8426 23.712 38.3119 23.712V22.712ZM34.9999 21.8L35.5614 20.9725C34.8004 20.4561 34.2062 19.7949 33.7702 18.9774L32.8879 19.448L32.0055 19.9186C32.5935 21.0211 33.4074 21.9279 34.4384 22.6275L34.9999 21.8ZM32.8879 19.448L33.7702 18.9774C33.3214 18.1359 33.0176 17.1656 32.8713 16.0535L31.8799 16.184L30.8884 16.3145C31.0621 17.6344 31.4303 18.8401 32.0055 19.9186L32.8879 19.448ZM31.8799 16.184L32.8744 16.0793C32.7556 14.9507 32.7852 13.8223 32.9636 12.692L31.9759 12.536L30.9881 12.38C30.7826 13.6817 30.7482 14.9853 30.8854 16.2887L31.8799 16.184ZM31.9759 12.536L32.9658 12.6774C33.0851 11.8428 33.2783 11.0411 33.5449 10.2711L32.5999 9.944L31.6549 9.61689C31.3454 10.5109 31.1227 11.4372 30.9859 12.3946L31.9759 12.536ZM32.5999 9.944L33.5376 10.2913C33.8291 9.50433 34.1857 8.84019 34.5999 8.288L33.7999 7.688L32.9999 7.088C32.454 7.8158 32.0107 8.65566 31.6621 9.59669L32.5999 9.944ZM33.7999 7.688L34.6136 8.26924C35.0337 7.68111 35.4962 7.22366 35.9966 6.88131L35.4319 6.056L34.8672 5.23069C34.1516 5.72034 33.526 6.35089 32.9861 7.10676L33.7999 7.688ZM35.4319 6.056L35.9769 6.89444C36.4466 6.58909 36.9756 6.432 37.5919 6.432V5.432V4.432C36.6082 4.432 35.6971 4.69091 34.8869 5.21756L35.4319 6.056ZM37.5919 5.432V6.432C37.9102 6.432 38.3705 6.50248 38.9972 6.68152L39.2719 5.72L39.5466 4.75848C38.8292 4.55351 38.1695 4.432 37.5919 4.432V5.432ZM39.2719 5.72L39.0403 6.69281C39.6278 6.83269 40.1658 7.04057 40.6582 7.31416L41.1439 6.44L41.6295 5.56584C40.97 5.19942 40.26 4.92731 39.5035 4.74719L39.2719 5.72ZM41.1439 6.44L41.8222 7.1748C41.8925 7.10991 41.9352 7.09987 41.9639 7.09628C42.0039 7.09127 42.1053 7.09108 42.2918 7.16963L42.6799 6.248L43.0679 5.32636C42.6465 5.14892 42.1878 5.05272 41.7158 5.11172C41.2326 5.17213 40.8113 5.38609 40.4656 5.7052L41.1439 6.44ZM40.8559 9.752L41.3928 8.90834C41.0653 8.69995 40.6683 8.42556 40.1992 8.08159L39.6079 8.888L39.0165 9.6944C39.5075 10.0544 39.9425 10.3561 40.319 10.5957L40.8559 9.752ZM39.6079 8.888L40.2587 8.12874C39.7425 7.68636 39.1142 7.312 38.4079 7.312V8.312V9.312C38.4003 9.312 38.44 9.30994 38.5391 9.35752C38.6396 9.40576 38.7789 9.49456 38.9571 9.64726L39.6079 8.888ZM38.4079 8.312V7.312C37.696 7.312 37.0819 7.64288 36.5802 8.10285L37.2559 8.84L37.9316 9.57715C38.1978 9.33312 38.3518 9.312 38.4079 9.312V8.312ZM37.2559 8.84L36.5488 8.13289C36.1323 8.54936 35.7633 9.03195 35.4384 9.5735L36.2959 10.088L37.1534 10.6025C37.4044 10.1841 37.6754 9.83464 37.963 9.54711L37.2559 8.84ZM36.2959 10.088L35.4276 9.59186C35.1487 10.0801 34.9045 10.5858 34.6954 11.1086L35.6239 11.48L36.5524 11.8514C36.7272 11.4142 36.9311 10.9919 37.1641 10.5841L36.2959 10.088ZM35.6239 11.48L34.6954 11.1086C34.4959 11.6074 34.3449 12.0494 34.2637 12.4151L35.2399 12.632L36.2161 12.8489C36.2628 12.6386 36.3679 12.3126 36.5524 11.8514L35.6239 11.48ZM35.2399 12.632L34.2593 12.4359C34.1506 12.9792 34.0826 13.6076 34.049 14.3124L35.0479 14.36L36.0467 14.4076C36.0772 13.7684 36.1371 13.2448 36.2205 12.8281L35.2399 12.632ZM35.0479 14.36L34.049 14.3124C34.0132 15.0644 34.0671 15.8151 34.2095 16.5631L35.1919 16.376L36.1742 16.1889C36.0607 15.5929 36.0185 14.9996 36.0467 14.4076L35.0479 14.36ZM35.1919 16.376L34.2113 16.5721C34.3638 17.3348 34.6513 18.0447 35.0723 18.6953L35.9119 18.152L36.7514 17.6087C36.4684 17.1713 36.2759 16.6972 36.1725 16.1799L35.1919 16.376ZM35.9119 18.152L35.1119 18.752C35.6474 19.466 36.4036 19.9396 37.3007 20.2127L37.5919 19.256L37.883 18.2993C37.3081 18.1244 36.9444 17.862 36.7119 17.552L35.9119 18.152ZM37.5919 19.256L37.3172 20.2175C37.965 20.4026 38.6656 20.3853 39.3819 20.2345L39.1759 19.256L38.9699 18.2774C38.4701 18.3827 38.1147 18.3654 37.8666 18.2945L37.5919 19.256ZM39.1759 19.256L39.4304 20.2231C40.1555 20.0323 40.8479 19.7112 41.5066 19.272L40.9519 18.44L40.3972 17.6079C39.9039 17.9368 39.4123 18.1597 38.9214 18.2889L39.1759 19.256ZM40.9519 18.44L41.4859 19.2855C42.2 18.8345 42.8409 18.2435 43.4127 17.5287L42.6319 16.904L41.851 16.2793C41.3989 16.8445 40.9198 17.2775 40.4179 17.5945L40.9519 18.44ZM42.6319 16.904L43.3938 17.5516C44.022 16.8126 44.4982 15.9667 44.8249 15.0231L43.8799 14.696L42.9349 14.3689C42.6855 15.0893 42.3297 15.7154 41.8699 16.2564L42.6319 16.904ZM43.8799 14.696L44.8252 15.022C45.2204 13.8761 45.2137 12.6935 44.8316 11.509L43.8799 11.816L42.9282 12.123C43.1861 12.9225 43.1794 13.6599 42.9345 14.37L43.8799 14.696ZM43.8799 11.816L44.8425 11.5453C44.4798 10.2555 43.6861 9.28455 42.4906 8.70745L42.0559 9.608L41.6211 10.5086C42.2817 10.8274 42.704 11.3285 42.9172 12.0867L43.8799 11.816ZM42.0559 9.608L41.4746 8.79427C41.4264 8.82872 41.3959 8.84183 41.3835 8.84626C41.3728 8.85011 41.3743 8.848 41.3839 8.848V9.848V10.848C41.86 10.848 42.2829 10.6747 42.6371 10.4217L42.0559 9.608ZM41.3839 9.848V8.848C41.3176 8.848 41.2792 8.84311 41.2628 8.84013C41.2458 8.83704 41.2643 8.83817 41.3031 8.85757L40.8559 9.752L40.4087 10.6464C40.7322 10.8082 41.0836 10.848 41.3839 10.848V9.848ZM8.16 29.04L7.82718 28.097L7.80774 28.1039L7.78861 28.1115L8.16 29.04ZM6.912 29.088L7.32581 28.1776L7.3258 28.1776L6.912 29.088ZM6.144 28.464L6.992 27.934L6.97818 27.9119L6.96323 27.8905L6.144 28.464ZM6.768 26.544L6.27594 25.6734L6.27186 25.6758L6.768 26.544ZM9.552 25.536L9.77483 26.5109L9.78798 26.5078L9.80104 26.5045L9.552 25.536ZM13.152 25.296L13.0525 26.291L13.152 25.296ZM16.656 26.352L16.1771 27.2299L16.1928 27.2384L16.2088 27.2464L16.656 26.352ZM19.392 28.464L18.6308 29.1125L18.6376 29.1205L18.6446 29.1284L19.392 28.464ZM21.12 31.44L20.1741 31.7643L20.1797 31.7808L20.1859 31.7971L21.12 31.44ZM21.696 34.896L22.6948 34.9459L22.6953 34.9341L22.6957 34.9223L21.696 34.896ZM20.928 38.736L19.9841 38.4056L19.9804 38.4162L19.977 38.4269L20.928 38.736ZM19.152 42.336L18.3273 41.7705L18.3217 41.7786L18.3163 41.7868L19.152 42.336ZM16.464 45.408L17.1225 46.1606L17.1241 46.1592L16.464 45.408ZM13.056 47.52L13.307 48.488L13.3727 48.4709L13.4356 48.4452L13.056 47.52ZM11.088 47.616L10.7517 48.5577L10.7517 48.5577L11.088 47.616ZM10.176 47.04L9.24752 47.4114L9.29226 47.5232L9.36227 47.6212L10.176 47.04ZM10.08 46.416L9.08612 46.3056L9.08 46.3606V46.416H10.08ZM10.608 45.552L11.277 46.2953L11.6644 45.9466L11.6004 45.4292L10.608 45.552ZM9.888 36.576L8.88818 36.598L8.88856 36.6093L9.888 36.576ZM9.792 28.608H10.792V27.4161L9.61821 27.6232L9.792 28.608ZM13.392 28.416L13.5946 27.4367L13.5756 27.4328L13.5564 27.4296L13.392 28.416ZM12.768 28.368L12.6036 29.3544L12.6852 29.368H12.768V28.368ZM12.192 28.32V27.32H10.192L11.392 28.92L12.192 28.32ZM12.672 29.28L11.7233 29.5962L11.7276 29.609L11.7322 29.6217L12.672 29.28ZM12.912 36.624L11.9121 36.6383L11.9122 36.6454L11.9124 36.6526L12.912 36.624ZM13.392 43.872L12.3968 43.9703L12.5684 45.7075L13.9802 44.6807L13.392 43.872ZM16.992 40.032L16.1547 39.4852L16.152 39.4895L16.992 40.032ZM18.624 35.088L19.6233 35.125L19.6236 35.1165L19.6238 35.108L18.624 35.088ZM17.424 30.864L16.5919 31.4187L16.5987 31.4287L17.424 30.864ZM8.16 29.04L7.78861 28.1115C7.47316 28.2377 7.35422 28.1905 7.32581 28.1776L6.912 29.088L6.49819 29.9984C7.17378 30.3055 7.88684 30.2263 8.53139 29.9685L8.16 29.04ZM6.912 29.088L7.3258 28.1776C7.10286 28.0763 7.02211 27.9822 6.992 27.934L6.144 28.464L5.296 28.994C5.58589 29.4578 6.01714 29.7797 6.4982 29.9984L6.912 29.088ZM6.144 28.464L6.96323 27.8905C6.92081 27.8299 6.91238 27.7956 6.91034 27.7849C6.90869 27.7762 6.90607 27.7583 6.91676 27.7191L5.952 27.456L4.98724 27.1929C4.80698 27.8538 4.94412 28.4937 5.32477 29.0375L6.144 28.464ZM5.952 27.456L6.91676 27.7191C6.91837 27.7132 6.94997 27.5918 7.26414 27.4122L6.768 26.544L6.27186 25.6758C5.69003 26.0082 5.17763 26.4948 4.98724 27.1929L5.952 27.456ZM6.768 26.544L7.26006 27.4146C7.88778 27.0598 8.71777 26.7525 9.77483 26.5109L9.552 25.536L9.32917 24.5611C8.14623 24.8315 7.12022 25.1962 6.27594 25.6734L6.768 26.544ZM9.552 25.536L9.80104 26.5045C10.7953 26.2488 11.8763 26.1734 13.0525 26.291L13.152 25.296L13.2515 24.301C11.8677 24.1626 10.5487 24.2472 9.30296 24.5675L9.552 25.536ZM13.152 25.296L13.0525 26.291C14.2088 26.4067 15.2465 26.7223 16.1771 27.2299L16.656 26.352L17.1349 25.4741C15.9535 24.8297 14.6552 24.4413 13.2515 24.301L13.152 25.296ZM16.656 26.352L16.2088 27.2464C17.1854 27.7347 17.988 28.3579 18.6308 29.1125L19.392 28.464L20.1532 27.8155C19.324 26.8421 18.3026 26.0573 17.1032 25.4576L16.656 26.352ZM19.392 28.464L18.6446 29.1284C19.3224 29.8909 19.832 30.7666 20.1741 31.7643L21.12 31.44L22.0659 31.1157C21.64 29.8734 20.9976 28.7651 20.1394 27.7996L19.392 28.464ZM21.12 31.44L20.1859 31.7971C20.5531 32.7575 20.7251 33.7787 20.6963 34.8697L21.696 34.896L22.6957 34.9223C22.7309 33.5813 22.5189 32.2985 22.0541 31.0829L21.12 31.44ZM21.696 34.896L20.6972 34.8461C20.6383 36.025 20.4024 37.2108 19.9841 38.4056L20.928 38.736L21.8719 39.0663C22.3496 37.7012 22.6257 36.327 22.6948 34.9459L21.696 34.896ZM20.928 38.736L19.977 38.4269C19.5908 39.615 19.0416 40.7287 18.3273 41.7705L19.152 42.336L19.9767 42.9015C20.7984 41.7033 21.4332 40.417 21.879 39.0451L20.928 38.736ZM19.152 42.336L18.3163 41.7868C17.6319 42.8283 16.7959 43.7851 15.8039 44.6568L16.464 45.408L17.1241 46.1592C18.2441 45.1749 19.2001 44.0837 19.9877 42.8852L19.152 42.336ZM16.464 45.408L15.8055 44.6554C14.8636 45.4796 13.8217 46.125 12.6764 46.5948L13.056 47.52L13.4356 48.4452C14.7863 47.891 16.0164 47.1284 17.1225 46.1606L16.464 45.408ZM13.056 47.52L12.805 46.552C11.9899 46.7633 11.5797 46.7297 11.4243 46.6743L11.088 47.616L10.7517 48.5577C11.4923 48.8223 12.3941 48.7247 13.307 48.488L13.056 47.52ZM11.088 47.616L11.4243 46.6743C11.2488 46.6116 11.1316 46.553 11.058 46.5065C10.9836 46.4595 10.9753 46.4385 10.9897 46.4588L10.176 47.04L9.36227 47.6212C9.69958 48.0935 10.2358 48.3735 10.7517 48.5577L11.088 47.616ZM10.176 47.04L11.1045 46.6686C11.1061 46.6727 11.0993 46.6567 11.0924 46.6119C11.0856 46.5676 11.08 46.5036 11.08 46.416H10.08H9.08C9.08 46.7432 9.11917 47.0905 9.24752 47.4114L10.176 47.04ZM10.08 46.416L11.0739 46.5264C11.0683 46.577 11.0529 46.497 11.277 46.2953L10.608 45.552L9.93904 44.8087C9.52313 45.183 9.15573 45.679 9.08612 46.3056L10.08 46.416ZM10.608 45.552L11.6004 45.4292C11.2198 42.3524 10.9824 39.3904 10.8874 36.5427L9.888 36.576L8.88856 36.6093C8.98563 39.5216 9.2282 42.5436 9.61557 45.6748L10.608 45.552ZM9.888 36.576L10.8878 36.554C10.8239 33.6479 10.792 30.9993 10.792 28.608H9.792H8.792C8.792 31.0167 8.82411 33.6801 8.88824 36.598L9.888 36.576ZM9.792 28.608L9.61821 27.6232C9.01781 27.7292 8.42067 27.8875 7.82718 28.097L8.16 29.04L8.49282 29.983C8.98733 29.8085 9.47819 29.6788 9.96579 29.5928L9.792 28.608ZM13.392 28.416L13.5564 27.4296C13.3027 27.3873 13.039 27.368 12.768 27.368V28.368V29.368C12.945 29.368 13.0973 29.3807 13.2276 29.4024L13.392 28.416ZM12.768 28.368L12.9324 27.3816C12.6868 27.3407 12.4398 27.32 12.192 27.32V28.32V29.32C12.3282 29.32 12.4652 29.3313 12.6036 29.3544L12.768 28.368ZM12.192 28.32L11.392 28.92C11.505 29.0707 11.6207 29.2885 11.7233 29.5962L12.672 29.28L13.6207 28.9638C13.4673 28.5035 13.263 28.0813 12.992 27.72L12.192 28.32ZM12.672 29.28L11.7322 29.6217C11.8229 29.8713 11.864 30.1078 11.864 30.336H12.864H13.864C13.864 29.8602 13.7771 29.3927 13.6118 28.9383L12.672 29.28ZM12.864 30.336H11.864C11.864 32.2934 11.88 34.3942 11.9121 36.6383L12.912 36.624L13.9119 36.6097C13.88 34.3738 13.864 32.2826 13.864 30.336H12.864ZM12.912 36.624L11.9124 36.6526C11.9772 38.9192 12.1389 41.3587 12.3968 43.9703L13.392 43.872L14.3872 43.7737C14.1331 41.2013 13.9748 38.8088 13.9116 36.5954L12.912 36.624ZM13.392 43.872L13.9802 44.6807C15.4928 43.5807 16.7766 42.2087 17.832 40.5745L16.992 40.032L16.152 39.4895C15.2234 40.9272 14.1072 42.1153 12.8038 43.0633L13.392 43.872ZM16.992 40.032L17.8293 40.5788C18.944 38.8718 19.552 37.0495 19.6233 35.125L18.624 35.088L17.6247 35.051C17.568 36.5825 17.088 38.0562 16.1547 39.4852L16.992 40.032ZM18.624 35.088L19.6238 35.108C19.6596 33.3186 19.2092 31.7022 18.2493 30.2993L17.424 30.864L16.5987 31.4287C17.3028 32.4578 17.6524 33.6574 17.6242 35.068L18.624 35.088ZM17.424 30.864L18.2561 30.3093C17.2423 28.7886 15.6368 27.8593 13.5946 27.4367L13.392 28.416L13.1894 29.3953C14.8592 29.7407 15.9417 30.4434 16.5919 31.4187L17.424 30.864ZM36.3986 31.248L36.0106 32.1696L36.0323 32.1788L36.0544 32.1869L36.3986 31.248ZM38.7986 32.832L38.0587 33.5047L38.0669 33.5137L38.0753 33.5225L38.7986 32.832ZM40.3346 35.232L39.4038 35.5977L39.4085 35.6093L40.3346 35.232ZM40.9106 37.92L39.9112 37.9545L39.9118 37.9716L39.913 37.9888L40.9106 37.92ZM40.6226 40.512L41.5534 40.8777L41.5652 40.8476L41.5751 40.8168L40.6226 40.512ZM39.2786 43.152L40.1249 43.6848L40.1249 43.6848L39.2786 43.152ZM37.4066 45.456L38.0971 46.1794L38.0971 46.1794L37.4066 45.456ZM28.7186 46.8L28.1571 47.6275L28.1571 47.6275L28.7186 46.8ZM26.6066 44.448L25.7243 44.9186L25.7243 44.9186L26.6066 44.448ZM25.5986 41.184L24.6041 41.2887L24.6055 41.3016L24.6072 41.3145L25.5986 41.184ZM25.6946 37.536L26.6824 37.692L26.6835 37.6847L26.6846 37.6774L25.6946 37.536ZM26.3186 34.944L25.3809 34.5967L25.3771 34.6067L25.3736 34.6169L26.3186 34.944ZM27.5186 32.688L28.3186 33.288L28.3256 33.2787L28.3324 33.2692L27.5186 32.688ZM29.1506 31.056L28.6056 30.2176L28.5957 30.224L28.5859 30.2307L29.1506 31.056ZM32.9906 30.72L32.7159 31.6815L32.7373 31.6876L32.759 31.6928L32.9906 30.72ZM34.8626 31.44L34.377 32.3142L35.0093 32.6655L35.5409 32.1748L34.8626 31.44ZM34.5746 34.752L34.0377 35.5957L34.0813 35.6234L34.1274 35.6464L34.5746 34.752ZM33.3266 33.888L32.6758 34.6473L32.7047 34.672L32.7353 34.6944L33.3266 33.888ZM30.9746 33.84L30.2989 33.1028L30.2829 33.1175L30.2675 33.1329L30.9746 33.84ZM30.0146 35.088L29.1571 34.5735L29.1517 34.5826L29.1464 34.5919L30.0146 35.088ZM29.3426 36.48L30.2711 36.8514L30.2711 36.8514L29.3426 36.48ZM28.9586 37.632L27.9824 37.4151L27.9801 37.4255L27.978 37.4359L28.9586 37.632ZM28.7666 39.36L27.7678 39.3124L27.7678 39.3124L28.7666 39.36ZM28.9106 41.376L27.9282 41.5631L27.93 41.5721L28.9106 41.376ZM29.6306 43.152L28.7911 43.6953L28.8099 43.7243L28.8306 43.752L29.6306 43.152ZM31.3106 44.256L31.0195 45.2127L31.0277 45.2152L31.0359 45.2175L31.3106 44.256ZM32.8946 44.256L33.1006 45.2345L33.125 45.2294L33.1491 45.2231L32.8946 44.256ZM34.6706 43.44L34.1366 42.5945L34.1262 42.6011L34.1159 42.6079L34.6706 43.44ZM36.3506 41.904L35.5887 41.2564L35.5791 41.2677L35.5698 41.2793L36.3506 41.904ZM37.5986 39.696L38.5436 40.0231L38.544 40.022L37.5986 39.696ZM37.5986 36.816L36.636 37.0867L36.6411 37.105L36.6469 37.123L37.5986 36.816ZM35.7746 34.608L36.2094 33.7074L35.6757 33.4498L35.1934 33.7943L35.7746 34.608ZM36.3986 31.248L36.0544 32.1869C36.8745 32.4876 37.5352 32.9288 38.0587 33.5047L38.7986 32.832L39.5386 32.1593C38.7821 31.3272 37.8427 30.7124 36.7429 30.3091L36.3986 31.248ZM38.7986 32.832L38.0753 33.5225C38.6587 34.1337 39.0998 34.8237 39.4039 35.5977L40.3346 35.232L41.2654 34.8663C40.8654 33.8483 40.2825 32.9383 39.522 32.1415L38.7986 32.832ZM40.3346 35.232L39.4085 35.6093C39.7163 36.3648 39.8833 37.1447 39.9112 37.9545L40.9106 37.92L41.91 37.8855C41.874 36.8393 41.6569 35.8272 41.2607 34.8547L40.3346 35.232ZM40.9106 37.92L39.913 37.9888C39.9692 38.8041 39.8837 39.5401 39.6702 40.2072L40.6226 40.512L41.5751 40.8168C41.8736 39.8839 41.98 38.8919 41.9083 37.8512L40.9106 37.92ZM40.6226 40.512L39.6919 40.1463C39.3641 40.9807 38.9451 41.805 38.4324 42.6192L39.2786 43.152L40.1249 43.6848C40.7002 42.771 41.1772 41.8353 41.5534 40.8777L40.6226 40.512ZM39.2786 43.152L38.4324 42.6192C37.9301 43.4169 37.3577 44.1202 36.7162 44.7326L37.4066 45.456L38.0971 46.1794C38.8635 45.4478 39.5391 44.6151 40.1249 43.6848L39.2786 43.152ZM37.4066 45.456L36.7162 44.7326C36.0925 45.328 35.3838 45.8104 34.5855 46.181L35.0066 47.088L35.4277 47.995C36.4215 47.5336 37.3128 46.928 38.0971 46.1794L37.4066 45.456ZM35.0066 47.088L34.5855 46.181C33.8343 46.5298 32.9881 46.712 32.0306 46.712V47.712V48.712C33.2492 48.712 34.3869 48.4782 35.4277 47.995L35.0066 47.088ZM32.0306 47.712V46.712C30.8759 46.712 29.9781 46.4462 29.2801 45.9725L28.7186 46.8L28.1571 47.6275C29.2511 48.3698 30.5614 48.712 32.0306 48.712V47.712ZM28.7186 46.8L29.2801 45.9725C28.5191 45.4561 27.925 44.7949 27.489 43.9774L26.6066 44.448L25.7243 44.9186C26.3123 46.0211 27.1261 46.9279 28.1571 47.6275L28.7186 46.8ZM26.6066 44.448L27.489 43.9774C27.0402 43.1359 26.7364 42.1656 26.5901 41.0535L25.5986 41.184L24.6072 41.3145C24.7809 42.6344 25.1491 43.8401 25.7243 44.9186L26.6066 44.448ZM25.5986 41.184L26.5931 41.0793C26.4743 39.9507 26.5039 38.8223 26.6824 37.692L25.6946 37.536L24.7069 37.38C24.5013 38.6817 24.4669 39.9853 24.6041 41.2887L25.5986 41.184ZM25.6946 37.536L26.6846 37.6774C26.8038 36.8428 26.9971 36.0411 27.2636 35.2711L26.3186 34.944L25.3736 34.6169C25.0642 35.5109 24.8414 36.4372 24.7047 37.3946L25.6946 37.536ZM26.3186 34.944L27.2564 35.2913C27.5478 34.5043 27.9045 33.8402 28.3186 33.288L27.5186 32.688L26.7186 32.088C26.1728 32.8158 25.7294 33.6557 25.3809 34.5967L26.3186 34.944ZM27.5186 32.688L28.3324 33.2692C28.7525 32.6811 29.2149 32.2237 29.7153 31.8813L29.1506 31.056L28.5859 30.2307C27.8703 30.7203 27.2448 31.3509 26.7049 32.1068L27.5186 32.688ZM29.1506 31.056L29.6956 31.8944C30.1654 31.5891 30.6943 31.432 31.3106 31.432V30.432V29.432C30.3269 29.432 29.4159 29.6909 28.6056 30.2176L29.1506 31.056ZM31.3106 30.432V31.432C31.629 31.432 32.0893 31.5025 32.7159 31.6815L32.9906 30.72L33.2653 29.7585C32.548 29.5535 31.8883 29.432 31.3106 29.432V30.432ZM32.9906 30.72L32.759 31.6928C33.3465 31.8327 33.8845 32.0406 34.377 32.3142L34.8626 31.44L35.3483 30.5658C34.6887 30.1994 33.9787 29.9273 33.2222 29.7472L32.9906 30.72ZM34.8626 31.44L35.5409 32.1748C35.6112 32.1099 35.6539 32.0999 35.6827 32.0963C35.7227 32.0913 35.824 32.0911 36.0106 32.1696L36.3986 31.248L36.7867 30.3264C36.3653 30.1489 35.9066 30.0527 35.4346 30.1117C34.9513 30.1721 34.53 30.3861 34.1843 30.7052L34.8626 31.44ZM34.5746 34.752L35.1115 33.9083C34.784 33.6999 34.387 33.4256 33.918 33.0816L33.3266 33.888L32.7353 34.6944C33.2262 35.0544 33.6612 35.3561 34.0377 35.5957L34.5746 34.752ZM33.3266 33.888L33.9774 33.1287C33.4613 32.6864 32.833 32.312 32.1266 32.312V33.312V34.312C32.119 34.312 32.1588 34.3099 32.2579 34.3575C32.3584 34.4058 32.4977 34.4946 32.6758 34.6473L33.3266 33.888ZM32.1266 33.312V32.312C31.4147 32.312 30.8007 32.6429 30.2989 33.1028L30.9746 33.84L31.6504 34.5772C31.9166 34.3331 32.0705 34.312 32.1266 34.312V33.312ZM30.9746 33.84L30.2675 33.1329C29.8511 33.5494 29.4821 34.0319 29.1571 34.5735L30.0146 35.088L30.8721 35.6025C31.1232 35.1841 31.3942 34.8346 31.6817 34.5471L30.9746 33.84ZM30.0146 35.088L29.1464 34.5919C28.8674 35.0801 28.6233 35.5858 28.4141 36.1086L29.3426 36.48L30.2711 36.8514C30.446 36.4142 30.6499 35.9919 30.8829 35.5841L30.0146 35.088ZM29.3426 36.48L28.4141 36.1086C28.2146 36.6074 28.0637 37.0494 27.9824 37.4151L28.9586 37.632L29.9348 37.8489C29.9816 37.6386 30.0866 37.3126 30.2711 36.8514L29.3426 36.48ZM28.9586 37.632L27.978 37.4359C27.8694 37.9792 27.8013 38.6076 27.7678 39.3124L28.7666 39.36L29.7655 39.4076C29.7959 38.7684 29.8559 38.2448 29.9392 37.8281L28.9586 37.632ZM28.7666 39.36L27.7678 39.3124C27.732 40.0644 27.7858 40.8151 27.9283 41.5631L28.9106 41.376L29.893 41.1889C29.7794 40.5929 29.7373 39.9996 29.7655 39.4076L28.7666 39.36ZM28.9106 41.376L27.93 41.5721C28.0826 42.3348 28.3701 43.0447 28.7911 43.6953L29.6306 43.152L30.4702 42.6087C30.1872 42.1713 29.9947 41.6972 29.8912 41.1799L28.9106 41.376ZM29.6306 43.152L28.8306 43.752C29.3661 44.466 30.1224 44.9396 31.0195 45.2127L31.3106 44.256L31.6018 43.2993C31.0269 43.1244 30.6631 42.862 30.4306 42.552L29.6306 43.152ZM31.3106 44.256L31.0359 45.2175C31.6838 45.4026 32.3844 45.3853 33.1006 45.2345L32.8946 44.256L32.6886 43.2774C32.1889 43.3827 31.8335 43.3654 31.5853 43.2945L31.3106 44.256ZM32.8946 44.256L33.1491 45.2231C33.8742 45.0323 34.5667 44.7112 35.2253 44.272L34.6706 43.44L34.1159 42.6079C33.6226 42.9368 33.131 43.1597 32.6401 43.2889L32.8946 44.256ZM34.6706 43.44L35.2046 44.2855C35.9187 43.8345 36.5596 43.2435 37.1315 42.5287L36.3506 41.904L35.5698 41.2793C35.1176 41.8445 34.6385 42.2775 34.1366 42.5945L34.6706 43.44ZM36.3506 41.904L37.1126 42.5516C37.7408 41.8126 38.217 40.9667 38.5436 40.0231L37.5986 39.696L36.6536 39.3689C36.4043 40.0893 36.0485 40.7154 35.5887 41.2564L36.3506 41.904ZM37.5986 39.696L38.544 40.022C38.9391 38.8761 38.9324 37.6935 38.5503 36.509L37.5986 36.816L36.6469 37.123C36.9048 37.9225 36.8981 38.6599 36.6533 39.37L37.5986 39.696ZM37.5986 36.816L38.5613 36.5453C38.1985 35.2555 37.4048 34.2846 36.2094 33.7074L35.7746 34.608L35.3399 35.5086C36.0004 35.8274 36.4227 36.3285 36.636 37.0867L37.5986 36.816ZM35.7746 34.608L35.1934 33.7943C35.1452 33.8287 35.1147 33.8418 35.1023 33.8463C35.0915 33.8501 35.0931 33.848 35.1026 33.848V34.848V35.848C35.5787 35.848 36.0017 35.6747 36.3559 35.4217L35.7746 34.608ZM35.1026 34.848V33.848C35.0363 33.848 34.9979 33.8431 34.9815 33.8401C34.9645 33.837 34.983 33.8382 35.0218 33.8576L34.5746 34.752L34.1274 35.6464C34.4509 35.8082 34.8024 35.848 35.1026 35.848V34.848Z" fill="white" mask="url(#path-1-outside-1_209_10)"/>
</g>
<defs>
<clipPath id="clip0_209_10">
<rect width="57" height="52" fill="white"/>
</clipPath>
</defs>
</svg>
