<svg width="175" height="2" viewBox="0 0 175 2" fill="none" xmlns="http://www.w3.org/2000/svg">
<path d="M73.4869 0.3082C77.9451 0.339778 82.2356 0.492469 86.7089 0.517375C92.2631 0.549132 97.9056 0.485408 103.473 0.510124C104.373 0.513959 105.275 0.51741 106.176 0.520454C110.817 0.536059 115.471 0.458691 120.113 0.378385C125.663 0.280596 131.205 0.18514 136.758 0.183853C141.075 0.180966 145.4 0.233616 149.722 0.335097C150.948 0.364393 152.173 0.468012 153.398 0.545505C154.228 0.598741 155.059 0.64116 155.89 0.654371C158.827 0.698664 161.766 0.656807 164.701 0.681889C166.355 0.693912 168.003 0.72296 169.656 0.768576C170.37 0.788195 171.084 0.810583 171.798 0.83454C172.316 0.851943 172.835 0.88312 173.354 0.915033C173.526 0.92573 173.69 0.949073 173.811 0.973083C173.932 0.99757 174 1.01997 174 1.04463C174 1.06928 173.931 1.09752 173.81 1.13098C173.688 1.16394 173.524 1.1983 173.352 1.21855C172.834 1.27942 172.316 1.32444 171.798 1.34114C171.073 1.3645 170.348 1.38461 169.623 1.40072C168.242 1.43152 166.863 1.44727 165.483 1.44966C165.265 1.27551 164.967 1.14661 164.408 1.09071C164.123 1.0619 163.707 1.05059 163.401 1.07681C163.125 1.10036 162.918 1.14203 162.721 1.18005C162.516 1.21989 162.32 1.25576 162.069 1.2648C161.642 1.28043 161.237 1.32849 160.811 1.3738C160.656 1.39035 160.498 1.40668 160.336 1.42137C159.018 1.41079 157.7 1.40268 156.383 1.41685C156.214 1.41243 156.049 1.40868 155.89 1.40593C155.571 1.40044 155.274 1.40214 155.009 1.41129C154.653 1.42367 154.326 1.45797 154.002 1.50297C153.798 1.51599 153.594 1.53006 153.39 1.5448C152.168 1.63225 150.945 1.74744 149.722 1.77548C149.628 1.77759 149.533 1.77967 149.439 1.78173C148.411 1.74031 147.334 1.69812 145.934 1.67408C145.33 1.66365 144.735 1.6384 144.162 1.61413C143.317 1.57818 142.521 1.54472 141.824 1.55989C141.358 1.56994 140.867 1.54523 140.378 1.52111C139.722 1.48852 139.067 1.45755 138.474 1.50423C138.101 1.53349 137.758 1.56924 137.44 1.60154C136.935 1.65302 136.494 1.69556 136.094 1.69243C135.344 1.68676 134.693 1.71558 134.12 1.73873C133.431 1.76687 132.853 1.7869 132.345 1.74037C132.268 1.73333 132.18 1.72432 132.081 1.71416C131.559 1.65993 130.723 1.57964 129.523 1.59218C129.096 1.59635 128.695 1.61988 128.302 1.64149C127.73 1.67322 127.174 1.70009 126.579 1.66767C126.49 1.66285 126.398 1.64945 126.313 1.63735C126.206 1.62195 126.112 1.60872 126.056 1.61718C125.893 1.64199 125.634 1.66706 125.353 1.69317C125.147 1.71236 124.928 1.73213 124.726 1.75303C123.185 1.72415 121.643 1.69336 120.101 1.66337C119.395 1.64965 118.688 1.6361 117.981 1.62304C117.62 1.5828 117.25 1.54712 116.859 1.51884C116.349 1.48195 115.687 1.46201 114.834 1.43851C114.207 1.42135 113.475 1.40233 112.624 1.37634C111.048 1.32846 109.43 1.32531 108.392 1.33507C108.173 1.33716 107.953 1.33954 107.717 1.3423C107.285 1.34737 106.8 1.35339 106.176 1.36111C105.509 1.36942 104.681 1.37858 103.586 1.38909C101.58 1.40837 99.8742 1.417 98.5928 1.42407C97.9388 1.42769 97.3951 1.43088 96.9786 1.4351C96.2659 1.4423 95.3906 1.44991 94.512 1.45804C93.1371 1.47071 91.7535 1.4848 90.9702 1.49861C90.6914 1.50352 90.3988 1.50936 90.0828 1.51572C89.2072 1.53333 88.1495 1.55528 86.6917 1.5749C85.1614 1.59558 84.2129 1.59691 83.2275 1.58995C82.8271 1.58716 82.4738 1.56623 82.1098 1.54416C81.5933 1.51293 81.0545 1.4792 80.3256 1.49525C80.1555 1.49902 79.9739 1.50613 79.784 1.51365C79.4352 1.52745 79.0579 1.54271 78.6715 1.54013C78.5368 1.53923 78.4182 1.53328 78.3018 1.52741C78.1738 1.52096 78.0484 1.51461 77.9062 1.51521C77.3753 1.51748 76.8586 1.52291 76.3995 1.52784C75.8075 1.53418 75.311 1.53962 75.003 1.53563C74.4538 1.52848 73.8534 1.54284 73.2453 1.55794C72.7809 1.56944 72.3117 1.58136 71.8574 1.58342C70.5594 1.58926 68.7744 1.62321 66.935 1.67459C66.2391 1.69404 65.6495 1.681 64.894 1.66312C64.4241 1.65203 63.8899 1.63903 63.226 1.63131C62.8496 1.62692 62.5308 1.64643 62.2356 1.66473C61.9637 1.68156 61.7117 1.69732 61.4531 1.69169C61.2248 1.6867 61.0804 1.65846 60.9433 1.63147C60.7908 1.60145 60.6472 1.573 60.407 1.58033C60.2792 1.58424 60.1238 1.60012 59.939 1.61913C59.866 1.62665 59.7879 1.63462 59.7054 1.64258C59.7096 1.63649 59.7106 1.63106 59.7107 1.62696C59.711 1.59798 59.4659 1.58436 59.2255 1.57085C59.1295 1.56545 59.0339 1.56011 58.9554 1.55381C58.6663 1.53061 58.1191 1.5296 57.7009 1.53319C57.5239 1.53469 57.3636 1.52641 57.1765 1.51665C57.0104 1.50798 56.8232 1.49814 56.5844 1.49305C56.4483 1.49015 56.3437 1.48196 56.2572 1.47511C56.1946 1.47014 56.1413 1.46589 56.0919 1.46494C56.0491 1.46413 56.0146 1.47294 55.9758 1.48287C55.9478 1.49003 55.9175 1.49778 55.8802 1.50294C55.7911 1.51526 55.6765 1.51947 55.5961 1.51607C55.559 1.5145 55.5296 1.51127 55.5005 1.50805C55.4666 1.5043 55.4329 1.50052 55.3864 1.49937C55.173 1.4941 54.9654 1.50507 54.7498 1.51656C54.5128 1.52917 54.2656 1.54242 53.9905 1.53495C53.9039 1.53259 53.8116 1.52663 53.7223 1.52082C53.6289 1.51473 53.538 1.50885 53.4608 1.50753C53.1472 1.50218 52.8525 1.52576 52.5813 1.54768C52.401 1.56224 52.2308 1.57602 52.0729 1.57982C51.7834 1.58675 51.6279 1.61458 51.5133 1.63521C51.454 1.6459 51.4055 1.65469 51.3547 1.65756C51.3081 1.65708 51.2609 1.65646 51.2147 1.65575C51.1722 1.654 51.1284 1.6522 51.0872 1.65309C51.0841 1.65316 51.081 1.65329 51.0779 1.65336C50.819 1.64828 50.5647 1.64034 50.3119 1.63234C49.7443 1.61439 49.1836 1.59606 48.5908 1.61085C48.4631 1.61405 48.3329 1.62615 48.2005 1.63848C48.0384 1.65359 47.8724 1.66912 47.7034 1.66894C47.3006 1.66851 46.8939 1.65147 46.4934 1.63441C45.891 1.60881 45.3022 1.58306 44.761 1.61611C44.5823 1.62703 44.4081 1.64475 44.2333 1.66266C44.1359 1.67264 44.038 1.68272 43.9392 1.6916C43.9601 1.67583 43.9713 1.66106 43.9817 1.64729C44.0031 1.61891 44.0216 1.59462 44.1165 1.57372C44.3406 1.52429 44.5947 1.45684 44.5665 1.40832C44.5588 1.39515 44.565 1.38044 44.5718 1.36562C44.5888 1.32846 44.6061 1.29055 44.3979 1.27376C44.2576 1.26247 43.8971 1.23639 43.6678 1.2653C43.6178 1.27161 43.5875 1.284 43.5536 1.29778C43.4928 1.32253 43.4204 1.35188 43.2031 1.35917C43.1666 1.3604 43.1268 1.36152 43.0857 1.36257C42.9217 1.36678 42.7381 1.37142 42.6695 1.3915C42.5904 1.41463 42.6073 1.44089 42.627 1.47148C42.6526 1.51133 42.6831 1.55857 42.5128 1.61635C42.4791 1.62777 42.4147 1.63189 42.3661 1.63501C42.3319 1.6372 42.3057 1.63896 42.3031 1.64237C42.3002 1.6463 42.3111 1.6544 42.325 1.66464C42.3741 1.70078 42.4594 1.76382 42.1033 1.7681C42.007 1.76924 41.8968 1.7667 41.798 1.76438C41.6524 1.76097 41.5314 1.75814 41.5152 1.76864C41.5092 1.77262 41.5048 1.77693 41.5013 1.78139C41.3853 1.78063 41.2694 1.77987 41.1535 1.7791C41.0048 1.76725 40.796 1.76916 40.5355 1.77158C40.4723 1.77217 40.4056 1.77274 40.3364 1.77319C40.1076 1.77149 39.8788 1.76977 39.6501 1.76796C39.4687 1.7633 39.2757 1.75531 39.0719 1.74219C38.6637 1.71591 38.3085 1.67123 37.9615 1.62729C37.8152 1.60877 37.6703 1.59035 37.5234 1.57354C37.5806 1.5713 37.6323 1.5687 37.6721 1.56519C37.9442 1.54113 38.0535 1.49484 38.154 1.45227C38.2208 1.42396 38.2838 1.39729 38.3883 1.37999C38.5795 1.3483 38.5603 1.31168 38.5462 1.28457C38.539 1.27051 38.5334 1.25899 38.5588 1.25212C38.5794 1.24661 38.6267 1.24399 38.6757 1.24126C38.7183 1.23889 38.7624 1.23641 38.7905 1.23197C39.1324 1.178 39.0296 1.14709 38.8801 1.10185C38.7977 1.0769 38.7013 1.0476 38.6571 1.00778C38.6191 0.965628 38.6319 0.953278 38.8111 0.936547C38.6715 0.915703 38.5318 0.894821 38.3922 0.873903C38.3375 0.875228 38.296 0.888238 38.2376 0.909881C38.1334 0.948528 37.7939 0.962633 37.5287 0.973689C37.4059 0.978808 37.299 0.983292 37.2386 0.989245C36.9178 1.02092 37.0111 1.06512 37.0933 1.10391C37.1385 1.12527 37.1802 1.14503 37.1477 1.16026C37.1339 1.16677 37.1537 1.17322 37.1736 1.17979C37.189 1.18487 37.2048 1.19003 37.2054 1.19535C37.2096 1.23401 37.0198 1.26287 36.8437 1.28974C36.7428 1.30513 36.6466 1.31991 36.5935 1.33543C36.5773 1.34016 36.5644 1.34498 36.5523 1.34966C36.5347 1.35649 36.5175 1.36301 36.4906 1.36861C36.4293 1.38136 36.303 1.39008 36.1647 1.39959C36.0937 1.40446 36.0197 1.40955 35.9496 1.41552C35.8589 1.42327 35.8262 1.43867 35.7916 1.45478C35.7673 1.46615 35.7417 1.47788 35.6947 1.48758C35.6097 1.50512 35.4379 1.51168 35.2786 1.51777C35.2092 1.52041 35.142 1.52304 35.0854 1.52639C35.0624 1.52775 35.0513 1.53042 35.0489 1.53405C34.7873 1.54664 34.5374 1.55948 34.2942 1.57205C33.075 1.63501 32.0197 1.68997 30.4438 1.65206C30.1458 1.64488 29.8259 1.64645 29.5026 1.65238C29.3088 1.64953 29.1149 1.64664 28.9211 1.64372C28.0805 1.63102 27.2397 1.60006 26.3995 1.56182C26.1949 1.52261 25.9445 1.48787 25.6481 1.45798C25.0916 1.40205 24.519 1.3769 23.8434 1.34666C23.3439 1.32466 22.788 1.29979 22.1402 1.26631C21.0518 1.21042 19.9344 1.17169 18.6734 1.15842C18.5473 1.15711 18.4193 1.15602 18.2901 1.15516C17.1333 1.14694 15.8784 1.17968 14.9637 1.21346C14.4093 1.23429 13.8271 1.23477 13.2844 1.22511C12.5211 1.21414 11.8361 1.17804 11.4179 1.26954C11.2844 1.29899 11.1553 1.34803 11.0296 1.3983C10.9401 1.43403 10.8519 1.47022 10.7654 1.49921C10.5353 1.50725 10.3048 1.51468 10.0745 1.52112C9.6652 1.48828 9.02921 1.44235 8.41442 1.55109C8.17681 1.55291 7.93905 1.55367 7.70951 1.55283C7.20862 1.55195 6.71855 1.5453 6.22403 1.5337C6.06261 1.52981 5.89959 1.52541 5.73617 1.52046C5.73462 1.52039 5.73307 1.52033 5.73152 1.52026C5.40257 1.51027 5.07113 1.49804 4.74518 1.4837C4.60557 1.4776 4.46596 1.47114 4.32635 1.46436C4.11166 1.45395 3.89603 1.44275 3.68139 1.43082C3.54133 1.42303 3.40169 1.4141 3.26302 1.40423C3.07714 1.39094 2.88947 1.37605 2.70148 1.35973C2.39651 1.33327 2.08922 1.30332 1.78351 1.272C1.28911 1.22137 0.797025 1.16715 0.304 1.11781C0.22337 1.10969 0.145887 1.09708 0.0889433 1.08387C0.0320201 1.07056 -8.70169e-05 1.05777 1.77134e-07 1.0461C0.000111663 1.03441 0.0324901 1.02404 0.0896071 1.01493C0.146686 1.00595 0.22409 0.999071 0.304664 0.996574C0.798038 0.981677 1.29075 0.954818 1.7855 0.924253C2.09127 0.905356 2.39844 0.884796 2.70347 0.865012C2.89155 0.852813 3.07904 0.840955 3.26501 0.829594C3.40297 0.821202 3.54196 0.813125 3.68139 0.805569C3.89694 0.793885 4.11355 0.782553 4.32901 0.77175C4.46862 0.764716 4.60823 0.757863 4.74784 0.751222C5.07467 0.735656 5.40701 0.721487 5.73683 0.70886C5.73882 0.708787 5.74082 0.708714 5.74281 0.708641C5.90507 0.702435 6.06707 0.696575 6.22735 0.691136C6.72207 0.674679 7.21241 0.661956 7.71349 0.653806C7.97239 0.649096 8.24219 0.646072 8.51 0.644047C8.65911 0.642916 8.80793 0.64211 8.95405 0.641617C9.03394 0.641429 9.11492 0.641409 9.19632 0.641489C11.0647 0.639829 12.92 0.704173 14.7924 0.762642C15.9577 0.797847 17.1243 0.82809 18.2901 0.818015C18.9905 0.811873 19.6906 0.798592 20.3899 0.779469C22.2576 0.729334 24.122 0.633011 25.988 0.55395C26.9654 0.513014 27.9431 0.477768 28.9211 0.462865C39.7928 0.294435 50.7015 0.225345 61.6144 0.253518C63.311 0.257351 65.0518 0.263657 66.7518 0.271156C68.4704 0.278822 70.1537 0.287698 71.8767 0.298132C72.4 0.301248 72.9365 0.304622 73.4869 0.3082Z" fill="black"/>
</svg>
